<?xml version="1.0" encoding="utf-8"?>
<!-- Generator: Adobe Illustrator 27.9.6, SVG Export Plug-In . SVG Version: 9.03 Build 54986)  -->
<svg version="1.1" id="Color_Circle" xmlns="http://www.w3.org/2000/svg" xmlns:xlink="http://www.w3.org/1999/xlink" x="0px"
	 y="0px" viewBox="0 0 1258.9 275.3" style="enable-background:new 0 0 1258.9 275.3;" xml:space="preserve">
<style type="text/css">
	.st0{fill:#00A651;}
	.st1{fill:#F58220;}
	.st2{fill:#6F2C91;}
	.st3{fill:#0083CA;}
	.st4{fill:#FFE600;}
	.st5{fill:#ED1C24;}
	.st6{fill:#FDB913;}
	.st7{fill:#F15A22;}
	.st8{fill:#C6168D;}
	.st9{fill:#005BAA;}
	.st10{fill:#00AAAD;}
	.st11{fill:#8DC63F;}
	.st12{fill:#7F7F7F;}
</style>
<g>
	<polygon class="st0" points="135.6,72.3 78,172.2 78,105.6 	"/>
	<polygon class="st1" points="193.3,172.2 135.6,72.3 193.3,105.6 	"/>
	<polygon class="st2" points="78,172.2 193.3,172.2 135.6,205.5 	"/>
	<polygon class="st3" points="106.8,122.2 135.6,138.9 135.6,172.2 78,172.2 	"/>
	<polygon class="st4" points="135.6,72.3 164.5,122.2 135.6,138.9 106.8,122.2 	"/>
	<polygon class="st5" points="193.3,172.2 135.6,172.2 135.6,138.9 164.5,122.2 	"/>
	<path class="st4" d="M118.4,74.5c0,0-10.7-40.1-10.7-40.1l0,0c8.9-2.4,18.3-3.7,28-3.7c9.7,0,19.1,1.3,28,3.7l0,0l-10.7,40.1l0,0
		c-5.5-1.5-11.3-2.3-17.2-2.3C129.7,72.3,123.9,73.1,118.4,74.5L118.4,74.5z"/>
	<path class="st1" d="M182.7,91.8c0,0,29.4-29.4,29.4-29.4h0c13.2,13.2,23,29.9,28,48.5l0,0L200,121.6l0,0
		C196.9,110.2,190.9,99.9,182.7,91.8L182.7,91.8z"/>
	<path class="st5" d="M182.7,186l29.4,29.4l0,0c13.2-13.2,23-29.9,28-48.5l0,0L200,156.1h0C196.9,167.6,190.9,177.8,182.7,186z"/>
	<path class="st2" d="M118.4,203.2c5.5,1.5,11.3,2.3,17.2,2.3c6,0,11.7-0.8,17.2-2.3h0l10.7,40.1l0,0c-8.9,2.4-18.3,3.7-28,3.7
		c-9.7,0-19.1-1.3-28-3.7l0,0L118.4,203.2L118.4,203.2z"/>
	<path class="st3" d="M31.2,166.9l40.1-10.7l0,0c3.1,11.5,9.1,21.7,17.3,29.9c0,0-29.4,29.4-29.4,29.4h0
		C45.9,202.1,36.1,185.5,31.2,166.9L31.2,166.9z"/>
	<path class="st0" d="M71.3,121.6l-40.1-10.7l0,0c5-18.6,14.8-35.2,28-48.5l0,0l29.4,29.4l0,0C80.4,99.9,74.3,110.2,71.3,121.6
		L71.3,121.6z"/>
	<path class="st6" d="M152.9,74.5l10.7-40.1l0,0c18.6,5,35.2,14.8,48.5,28h0c0,0-29.4,29.4-29.4,29.4l0,0
		C174.6,83.6,164.3,77.6,152.9,74.5L152.9,74.5z"/>
	<path class="st7" d="M240.1,110.9c2.4,8.9,3.7,18.3,3.7,28s-1.3,19.1-3.7,28l0,0L200,156.1h0c1.5-5.5,2.3-11.3,2.3-17.2
		c0-6-0.8-11.7-2.3-17.2l0,0L240.1,110.9L240.1,110.9z"/>
	<path class="st8" d="M163.6,243.3l-10.7-40.1h0c11.5-3.1,21.7-9.1,29.9-17.3c0,0,29.4,29.4,29.4,29.4l0,0
		C198.9,228.6,182.2,238.4,163.6,243.3L163.6,243.3z"/>
	<path class="st9" d="M107.6,243.4c-18.6-5-35.2-14.8-48.5-28h0c0,0,29.4-29.4,29.4-29.4c8.1,8.1,18.4,14.2,29.9,17.3h0L107.6,243.4
		L107.6,243.4z"/>
	<path class="st10" d="M31.2,166.9c-2.4-8.9-3.7-18.3-3.7-28c0-9.7,1.3-19.1,3.7-28l0,0l40.1,10.7l0,0c-1.5,5.5-2.3,11.3-2.3,17.2
		c0,6,0.8,11.7,2.3,17.2l0,0L31.2,166.9L31.2,166.9z"/>
	<path class="st11" d="M118.4,74.5c0,0-10.7-40.1-10.7-40.1l0,0c-18.6,5-35.2,14.8-48.5,28l0,0l29.4,29.4l0,0
		C96.7,83.6,106.9,77.6,118.4,74.5L118.4,74.5z"/>
</g>
<g>
	<path class="st12" d="M291.6,231.8V49.4h66.5c14.7,0,27.4,2.5,38,7.6c10.6,5,18.8,12.2,24.6,21.5c5.8,9.3,8.6,20.3,8.6,33.1
		c0,19.5-6.3,34.8-19,46c-12.6,11.1-30.1,16.7-52.3,16.7h-20.4v57.6H291.6z M350.9,84.7h-13.2v54h13.2c21.1,0,31.7-9,31.7-27.1
		C382.5,93.6,372,84.7,350.9,84.7z"/>
	<path class="st12" d="M473,88.5c-6.9,0-12.7-2.2-17.4-6.7c-4.7-4.5-7.1-9.9-7.1-16.3c0-6.7,2.4-12.3,7.1-16.7
		c4.7-4.4,10.5-6.6,17.4-6.6c6.9,0,12.6,2.2,17.3,6.6c4.6,4.4,7,10,7,16.7c0,6.4-2.3,11.8-7,16.3C485.6,86.3,479.9,88.5,473,88.5z
		 M451.2,231.8V107.9h43.4v123.8H451.2z"/>
	<path class="st12" d="M514.3,231.8l45.1-63.8l-42.7-60h48.5l20.2,33.6l19.7-33.6h46.1l-42.5,60.5l45.4,63.4h-48.7l-22.6-37.4
		l-22.3,37.4H514.3z"/>
	<path class="st12" d="M678.2,231.8V49.4h66.5c14.7,0,27.4,2.5,38,7.6c10.6,5,18.8,12.2,24.6,21.5c5.8,9.3,8.6,20.3,8.6,33.1
		c0,19.5-6.3,34.8-19,46c-12.6,11.1-30.1,16.7-52.3,16.7h-20.4v57.6H678.2z M737.5,84.7h-13.2v54h13.2c21.1,0,31.7-9,31.7-27.1
		C769.2,93.6,758.6,84.7,737.5,84.7z"/>
	<path class="st12" d="M937.2,235.6c-14.4,0-27.6-2.3-39.7-7c-12.1-4.6-22.5-11.2-31.3-19.7c-8.8-8.5-15.6-18.5-20.5-30.1
		c-4.9-11.6-7.3-24.4-7.3-38.3c0-13.4,2.5-26,7.4-37.6c5-11.6,11.9-21.7,20.9-30.2c9-8.6,19.4-15.2,31.4-20s25-7.2,39.1-7.2
		c14.4,0,27.6,2.3,39.7,7c12.1,4.6,22.5,11.2,31.3,19.7c8.8,8.5,15.6,18.5,20.5,30.1c4.9,11.6,7.3,24.4,7.3,38.3
		c0,13.4-2.5,26-7.4,37.6c-5,11.6-11.9,21.7-20.9,30.2c-9,8.6-19.4,15.2-31.4,20C964.3,233.2,951.2,235.6,937.2,235.6z M937.2,193.1
		c9.4,0,17.8-2.2,25.2-6.7c7.4-4.5,13.1-10.7,17.3-18.6c4.2-7.9,6.2-16.9,6.2-27c0-10.2-2.1-19.3-6.2-27.2
		c-4.2-7.9-9.9-14.2-17.2-18.7c-7.3-4.6-15.7-6.8-25.3-6.8c-9.4,0-17.8,2.2-25.2,6.7c-7.4,4.5-13.1,10.6-17.3,18.5
		c-4.2,7.8-6.2,16.9-6.2,27.1c0,10.2,2.1,19.3,6.2,27.2c4.2,7.9,9.9,14.2,17.3,18.7C919.3,190.9,927.7,193.1,937.2,193.1z"/>
	<path class="st12" d="M1065.6,231.8V49.4h73c33.4,0,59,7.9,76.8,23.6c17.8,15.8,26.6,38.3,26.6,67.6c0,19.2-4.1,35.6-12.4,49.2
		c-8.2,13.6-20.2,24-35.8,31.2c-15.6,7.2-34.4,10.8-56.5,10.8H1065.6z M1135.6,87.5h-22.1v106.1h22.1c37.6,0,56.4-17.7,56.4-53
		C1192,105.2,1173.2,87.5,1135.6,87.5z"/>
</g>
</svg>
